<?xml version="1.0" encoding="utf-8"?>
<!-- Generator: Adobe Illustrator 26.1.0, SVG Export Plug-In . SVG Version: 6.00 Build 0)  -->
<svg version="1.1" id="Layer_1" xmlns="http://www.w3.org/2000/svg" xmlns:xlink="http://www.w3.org/1999/xlink" x="0px" y="0px"
	 viewBox="0 0 600 600" style="enable-background:new 0 0 600 600;" xml:space="preserve">
<style type="text/css">
	.st0{fill:#6F7373;}
	.st1{fill:#40B9EB;}
	.st2{fill:#FFFFFF;}
	.st3{fill:#717474;}
</style>
<g>
	<path class="st0" d="M425.33,415.92l-33.54,5.16c-11.69,1.8-22.63-6.22-24.43-17.92l-29.48-191.69
		c-1.8-11.69,6.22-22.63,17.92-24.43l33.54-5.16c11.69-1.8,22.63,6.22,24.43,17.92l29.48,191.69
		C445.05,403.19,437.03,414.12,425.33,415.92z"/>
	<path class="st1" d="M491.51,100.24l5.16,33.54c1.8,11.69-6.22,22.63-17.92,24.43L287.07,187.7c-11.69,1.8-22.63-6.22-24.43-17.92
		l-5.16-33.54c-1.8-11.69,6.22-22.63,17.92-24.43l191.69-29.48C478.78,80.53,489.72,88.55,491.51,100.24z"/>
	<path class="st1" d="M340.84,278.89l5.16,33.54c1.8,11.69-6.22,22.63-17.92,24.43L136.4,366.35c-11.69,1.8-22.63-6.22-24.43-17.92
		l-5.16-33.54c-1.8-11.69,6.22-22.63,17.92-24.43l191.69-29.48C328.1,259.18,339.04,267.2,340.84,278.89z"/>
	<path class="st0" d="M374.77,86.88l-33.54,5.16c-11.69,1.8-22.63-6.22-24.43-17.92l-5.43-35.28c-1.8-11.69,6.22-22.63,17.92-24.43
		l33.54-5.16c11.69-1.8,22.63,6.22,24.43,17.92l5.43,35.28C394.48,74.14,386.46,85.08,374.77,86.88z"/>
	<path class="st0" d="M245.35,263.32l-33.54,5.16c-11.69,1.8-22.63-6.22-24.43-17.92L157.89,58.88
		c-1.8-11.69,6.22-22.63,17.92-24.43l33.54-5.16c11.69-1.8,22.63,6.22,24.43,17.92l29.48,191.69
		C265.06,250.59,257.04,261.52,245.35,263.32z"/>
	<path class="st1" d="M497.18,312.39l-33.54,5.16c-11.69,1.8-22.63-6.22-24.43-17.92l-5.43-35.28c-1.8-11.69,6.22-22.63,17.92-24.43
		l33.54-5.16c11.69-1.8,22.63,6.22,24.43,17.92l5.43,35.28C516.9,299.65,508.88,310.59,497.18,312.39z"/>
	<path class="st0" d="M273.8,434.8l-33.54,5.16c-11.69,1.8-22.63-6.22-24.43-17.92l-5.43-35.28c-1.8-11.69,6.22-22.63,17.92-24.43
		l33.54-5.16c11.69-1.8,22.63,6.22,24.43,17.92l5.43,35.28C293.52,422.06,285.5,433,273.8,434.8z"/>
	<path class="st1" d="M149.26,209.29l-33.54,5.16c-11.69,1.8-22.63-6.22-24.43-17.92l-5.43-35.28c-1.8-11.69,6.22-22.63,17.92-24.43
		l33.54-5.16c11.69-1.8,22.63,6.22,24.43,17.92l5.43,35.28C168.97,196.55,160.95,207.49,149.26,209.29z"/>
	<g>
		<path class="st2" d="M358.4,42.11l-0.46,12.34l5.08-0.79c0.45-0.07,0.86,0.03,1.24,0.28c0.38,0.26,0.6,0.61,0.67,1.06
			c0.06,0.42-0.04,0.79-0.3,1.11c-0.27,0.33-0.64,0.53-1.13,0.6l-5.65,0.88l-0.34,8.71c-0.01,0.39-0.14,0.72-0.4,0.99
			c-0.26,0.27-0.58,0.44-0.96,0.5c-0.48,0.08-0.91-0.02-1.27-0.28c-0.36-0.26-0.57-0.62-0.64-1.07c-0.03-0.21-0.04-0.37-0.02-0.48
			l0.31-7.85l-8.29,1.3l-0.34,8.71c0.02,0.35-0.1,0.67-0.35,0.96c-0.26,0.29-0.57,0.46-0.95,0.52c-0.45,0.07-0.85-0.03-1.21-0.29
			c-0.36-0.26-0.58-0.62-0.65-1.07c-0.03-0.21-0.04-0.37-0.02-0.48l0.31-7.85l-3.47,0.54c-0.48,0.08-0.91-0.02-1.27-0.28
			c-0.36-0.26-0.57-0.62-0.64-1.07c-0.06-0.41,0.04-0.78,0.3-1.11c0.27-0.32,0.64-0.53,1.13-0.6l4.04-0.63l0.46-12.34l-5.34,0.83
			c-0.45,0.07-0.86-0.02-1.24-0.28c-0.38-0.26-0.6-0.61-0.67-1.06c-0.06-0.41,0.04-0.78,0.3-1.11c0.27-0.33,0.64-0.53,1.13-0.6
			l5.91-0.92l0.33-8.44c0.01-0.39,0.14-0.72,0.4-0.99c0.26-0.27,0.58-0.44,0.96-0.5c0.48-0.08,0.9,0.01,1.24,0.26
			c0.34,0.25,0.55,0.61,0.62,1.1c0.03,0.21,0.04,0.37,0.02,0.47l-0.3,7.59l8.29-1.3l0.33-8.44c-0.02-0.35,0.11-0.67,0.38-0.96
			c0.27-0.29,0.6-0.47,0.98-0.53c0.48-0.08,0.9,0.01,1.24,0.26c0.34,0.25,0.55,0.61,0.62,1.1c0.03,0.21,0.04,0.37,0.02,0.47
			l-0.3,7.59l3.21-0.5c0.48-0.08,0.91,0.02,1.27,0.28c0.36,0.26,0.57,0.62,0.64,1.07c0.06,0.42-0.04,0.78-0.3,1.11
			c-0.27,0.33-0.64,0.53-1.13,0.6L358.4,42.11z M354.63,54.97l0.51-12.35l-8.29,1.3l-0.51,12.35L354.63,54.97z"/>
	</g>
	<g>
		<path class="st2" d="M298.79,165.75c-2.48-0.34-4.55-0.99-6.23-1.97c-0.89-0.46-1.41-1.23-1.58-2.3c-0.11-0.73,0-1.39,0.35-1.99
			c0.35-0.6,0.82-0.95,1.4-1.04c0.62-0.1,1.37,0.03,2.24,0.39c1.65,0.84,3.33,1.37,5.03,1.6c1.7,0.23,3.53,0.19,5.5-0.12
			c2.52-0.39,4.39-1.14,5.6-2.23s1.68-2.48,1.42-4.18c-0.21-1.31-0.99-2.22-2.37-2.74c-1.37-0.51-3.58-0.86-6.62-1.06
			c-3.14-0.18-5.73-0.55-7.77-1.12c-2.04-0.57-3.64-1.45-4.82-2.64c-1.18-1.2-1.93-2.83-2.25-4.9c-0.34-2.14-0.03-4.16,0.91-6.04
			c0.94-1.88,2.42-3.47,4.43-4.75c2.01-1.29,4.36-2.14,7.06-2.56c4.94-0.77,9.17-0.09,12.69,2.05c0.51,0.31,0.89,0.63,1.13,0.96
			c0.25,0.33,0.41,0.78,0.5,1.33c0.11,0.73,0,1.39-0.35,1.99c-0.35,0.6-0.82,0.95-1.4,1.04c-0.34,0.05-0.67,0.05-0.98-0.01
			c-0.31-0.06-0.73-0.19-1.26-0.39c-1.58-0.82-3.07-1.37-4.48-1.66c-1.41-0.29-3.08-0.29-5.02,0.01c-2.35,0.37-4.13,1.13-5.35,2.3
			c-1.22,1.16-1.69,2.59-1.43,4.28c0.22,1.42,1,2.41,2.32,2.98c1.33,0.57,3.5,0.96,6.5,1.16c3.18,0.21,5.8,0.59,7.85,1.13
			c2.05,0.55,3.69,1.4,4.91,2.55c1.22,1.16,1.99,2.72,2.3,4.69c0.34,2.14,0.04,4.13-0.9,5.95c-0.94,1.83-2.41,3.37-4.43,4.62
			c-2.02,1.25-4.42,2.1-7.22,2.54C303.84,166.05,301.27,166.09,298.79,165.75z"/>
		<path class="st2" d="M352.17,121.24c0.68,0.51,1.1,1.27,1.26,2.27l4.76,30.42c0.16,1-0.02,1.86-0.53,2.58
			c-0.51,0.72-1.25,1.15-2.21,1.3c-1,0.16-1.85-0.03-2.53-0.56c-0.69-0.53-1.11-1.3-1.26-2.3l-2-12.8l-18.71,2.93l2,12.8
			c0.16,1-0.02,1.86-0.53,2.58c-0.51,0.72-1.26,1.15-2.26,1.31c-0.97,0.15-1.8-0.04-2.5-0.56c-0.7-0.53-1.13-1.29-1.29-2.29
			l-4.76-30.42c-0.16-1,0.01-1.85,0.5-2.55c0.49-0.7,1.24-1.12,2.24-1.28c1-0.16,1.85,0.02,2.55,0.53c0.7,0.51,1.13,1.27,1.28,2.27
			l1.91,12.23l18.71-2.93l-1.91-12.23c-0.16-1,0.01-1.85,0.5-2.55c0.49-0.7,1.24-1.12,2.24-1.28
			C350.65,120.55,351.49,120.73,352.17,121.24z"/>
		<path class="st2" d="M399.56,147.89c0.12,0.79-0.09,1.52-0.64,2.17c-0.55,0.65-1.24,1.04-2.07,1.17c-0.55,0.09-1.09,0.02-1.62-0.2
			c-0.53-0.22-0.98-0.62-1.35-1.2l-4.2-6.46l-18.25,2.85l-2.02,7.43c-0.18,0.67-0.49,1.18-0.93,1.55c-0.44,0.37-0.95,0.6-1.54,0.69
			c-0.8,0.12-1.56-0.04-2.31-0.49c-0.74-0.45-1.18-1.07-1.3-1.87c-0.07-0.45-0.04-0.91,0.1-1.4l9.5-32.98
			c0.2-0.74,0.6-1.34,1.18-1.8c0.58-0.46,1.24-0.75,1.96-0.87c0.73-0.11,1.44-0.04,2.13,0.22c0.7,0.26,1.25,0.72,1.67,1.36
			l19.17,28.49C399.32,147.01,399.49,147.44,399.56,147.89z M372.9,140.7l13.68-2.14l-9.25-14.32L372.9,140.7z"/>
		<path class="st2" d="M434.49,142.69c0.12,0.8-0.09,1.5-0.65,2.12c-0.56,0.62-1.27,1-2.13,1.13c-0.55,0.09-1.1,0.04-1.64-0.14
			c-0.54-0.18-1.03-0.5-1.45-0.97l-8.53-9.39c-0.87-1-1.72-1.66-2.57-1.99s-1.89-0.39-3.14-0.2l-5.08,0.79l1.82,11.61
			c0.16,1.04,0,1.9-0.5,2.6c-0.49,0.7-1.24,1.12-2.24,1.28c-1,0.16-1.85-0.02-2.55-0.53c-0.7-0.51-1.13-1.28-1.29-2.32l-4.74-30.32
			c-0.16-1,0.01-1.82,0.49-2.47c0.48-0.64,1.23-1.04,2.23-1.2l12.96-2.03c4.15-0.65,7.44-0.22,9.89,1.29
			c2.45,1.51,3.95,4.01,4.49,7.5c0.44,2.83,0,5.28-1.32,7.35c-1.32,2.07-3.41,3.59-6.27,4.57c1.04,0.08,1.99,0.38,2.85,0.88
			c0.86,0.5,1.74,1.25,2.63,2.24l5.84,6.47C434.09,141.53,434.39,142.1,434.49,142.69z M422.47,125.27
			c1.03-1.13,1.39-2.69,1.08-4.66c-0.31-2-1.13-3.37-2.45-4.1c-1.32-0.73-3.24-0.9-5.76-0.51l-8.71,1.36l1.81,11.56l8.71-1.36
			C419.67,127.17,421.44,126.41,422.47,125.27z"/>
		<path class="st2" d="M441.84,143.37c-0.7-0.51-1.13-1.28-1.29-2.32l-4.74-30.32c-0.16-1,0.01-1.82,0.49-2.47
			c0.48-0.64,1.23-1.04,2.23-1.2l12.75-1.99c3.9-0.61,7.1-0.11,9.58,1.5c2.48,1.61,4,4.18,4.55,7.71c0.55,3.52-0.11,6.44-1.98,8.75
			c-1.87,2.31-4.76,3.77-8.66,4.38l-9.28,1.45l1.74,11.14c0.16,1.04-0.01,1.9-0.52,2.6c-0.51,0.7-1.28,1.13-2.32,1.29
			C443.39,144.06,442.54,143.88,441.84,143.37z M453.14,122.41c4.59-0.72,6.58-3.08,5.95-7.09c-0.63-4.01-3.24-5.65-7.83-4.93
			l-8.45,1.32l1.88,12.02L453.14,122.41z"/>
	</g>
	<g>
		<path class="st2" d="M181.31,309.11c-4.74,0.74-6.71,3.09-6.32,5.6c0.46,2.96,4.08,3.23,8.22,3.08
			c7.21-0.23,14.08,0.57,15.35,8.66c1.18,7.55-4.99,11.85-12.54,13.03c-6.93,1.08-12.58-0.21-16.07-6.02l4.89-3.59
			c2.09,3.49,6.26,4.53,10.38,3.88c4.02-0.63,7.58-2.62,7-6.31c-0.5-3.19-4.05-3.99-8.62-3.76c-7.05,0.26-13.73-0.58-14.92-8.18
			c-1.09-6.97,5.34-10.91,11.58-11.93c5.28-0.82,10.99-0.18,14.37,4.65l-4.67,3.41C188.47,309.87,184.99,308.53,181.31,309.11z"/>
		<path class="st2" d="M235.68,313.4c1.39,8.86-2.59,18.61-14.6,20.49c-11.91,1.86-18.77-5.84-20.17-14.75
			c-1.39-8.91,2.92-18.76,14.64-20.6C227.12,296.73,234.31,304.64,235.68,313.4z M207.17,317.91c0.88,5.62,4.81,11.4,12.99,10.12
			c8.13-1.27,10.12-7.93,9.24-13.55c-0.89-5.66-5.05-11.36-12.95-10.13C208.61,305.58,206.28,312.24,207.17,317.91z"/>
		<path class="st2" d="M237.72,295.82l24.35-3.81l0.96,6.15l-17.96,2.81l1.45,9.25l16.99-2.66l0.92,5.91l-16.99,2.66l1.96,12.54
			l-6.39,1L237.72,295.82z"/>
		<path class="st2" d="M266.88,297.16l-0.91-5.81l27.89-4.36l0.91,5.81l-10.75,1.68l4.39,28.08l-6.39,1l-4.39-28.08L266.88,297.16z"
			/>
	</g>
</g>
<g>
	<g>
		<g>
			<path class="st3" d="M140.75,483.43c-2.01-3.36-7.55-6.54-13.93-6.54c-8.22,0-12.17,3.44-12.17,7.8c0,5.12,6.04,6.54,13.09,7.38
				c12.25,1.51,23.66,4.7,23.66,18.71c0,13.09-11.58,18.71-24.67,18.71c-12,0-21.23-3.69-25.59-14.43l9.23-4.78
				c2.6,6.46,9.4,9.31,16.53,9.31c6.96,0,13.51-2.43,13.51-8.81c0-5.54-5.79-7.8-13.59-8.64c-12-1.43-23.08-4.62-23.08-17.79
				c0-12.08,11.92-17.03,22.74-17.12c9.15,0,18.63,2.6,23.08,11.66L140.75,483.43z"/>
			<path class="st3" d="M195.8,528.07v-23.75h-28.87v23.75h-11.08v-58.74h11.08v24.75h28.87v-24.75h10.99v58.74H195.8z"/>
			<path class="st3" d="M254.71,516.91H224l-5.04,11.08h-12l26.35-58.74h12.08l26.35,58.74h-12.08L254.71,516.91z M239.35,481.58
				l-10.91,25.01h21.82L239.35,481.58z"/>
			<path class="st3" d="M324.61,527.99h-13.18l-17.12-19.64h-10.66v19.64h-11.08v-58.82c9.31,0,18.63,0.08,27.94,0.08
				c13.85,0.08,21.15,9.31,21.15,19.47c0,8.06-3.69,16.2-14.85,18.46l17.79,20.05V527.99z M283.66,479.57v18.8h16.87
				c7.05,0,10.07-4.7,10.07-9.4c0-4.7-3.11-9.4-10.07-9.4H283.66z"/>
			<path class="st3" d="M352.64,510.7h-16.62v17.29h-11.08v-58.74c9.23,0,18.46-0.08,27.69-0.08
				C381.34,469.16,381.42,510.7,352.64,510.7z M336.02,500.55h16.62c14.18,0,14.1-20.81,0-20.81h-16.62V500.55z"/>
			<path class="st1" d="M406.45,502.73c-1.14-1.9-4.28-3.71-7.9-3.71c-4.66,0-6.9,1.95-6.9,4.42c0,2.9,3.42,3.71,7.42,4.19
				c6.94,0.86,13.41,2.66,13.41,10.61c0,7.42-6.56,10.61-13.98,10.61c-6.8,0-12.03-2.09-14.51-8.18l5.23-2.71
				c1.47,3.66,5.33,5.28,9.37,5.28c3.95,0,7.66-1.38,7.66-4.99c0-3.14-3.28-4.42-7.7-4.9c-6.8-0.81-13.08-2.62-13.08-10.08
				c0-6.85,6.75-9.66,12.89-9.7c5.18,0,10.56,1.47,13.08,6.61L406.45,502.73z"/>
			<path class="st1" d="M450.48,511.53c-0.1,8.61-5.37,17.22-17.08,17.22c-11.7,0-17.12-8.42-17.12-17.17
				c0-8.75,5.61-17.55,17.12-17.55C444.87,494.03,450.58,502.83,450.48,511.53z M422.47,511.67c0.14,5.47,3.09,11.32,10.94,11.32
				c7.85,0,10.8-5.9,10.89-11.37c0.1-5.61-3.04-11.89-10.89-11.89C425.56,499.74,422.33,506.06,422.47,511.67z"/>
			<path class="st1" d="M455.51,527.99v-33.25h23.92v6.04h-17.65v9.08h16.7v5.8h-16.7v12.32H455.51z"/>
			<path class="st1" d="M494.27,500.4h-10.56v-5.71c9.61,0,17.74,0,27.4,0v5.71h-10.56v27.59h-6.28V500.4z"/>
		</g>
		<g>
			<path class="st1" d="M113.88,584.31v-35.24h2.67v35.24H113.88z"/>
			<path class="st1" d="M133.41,551.54h-12.74v-2.42h28.2v2.42h-12.74v32.78h-2.72V551.54z"/>
			<path class="st1" d="M177.85,564.4c-1.8-2.89-4.69-3.31-7.47-3.35c-2.89,0-7.47,1.06-7.47,5.01c0,3.14,3.38,3.88,7.54,4.65
				c4.76,0.92,9.69,1.76,9.69,7.09c-0.04,5.57-5.64,6.91-9.76,6.91c-3.84,0-8.21-1.59-10.12-5.36l1.69-0.85
				c1.52,3,5.39,4.48,8.42,4.48c3.03,0,7.86-0.85,7.86-5.22c0.04-3.7-4.05-4.51-8.11-5.29c-4.51-0.88-9.13-1.8-9.13-6.34
				c-0.11-5.22,5.32-6.84,9.38-6.84c3.53,0,6.59,0.56,9.02,4.19L177.85,564.4z"/>
			<path class="st1" d="M206.23,572.01c-0.04,6.49-4.16,12.72-12.44,12.72c-8.28,0-12.44-6.27-12.44-12.79
				c0-6.63,4.12-12.69,12.44-12.69S206.26,565.35,206.23,572.01z M183.21,571.98c0.03,5.57,3.56,11,10.57,11
				c7.05,0,10.61-5.43,10.61-11c0-5.71-3.53-10.96-10.61-10.96C186.7,561.01,183.17,566.16,183.21,571.98z"/>
			<path class="st1" d="M210.87,559.64v22.88h13.89v1.8h-15.79v-24.67H210.87z"/>
			<path class="st1" d="M244.04,559.64v15.33c0,12.9-18.89,12.94-18.89,0v-15.33h1.87v15.33c0,10.61,15.16,10.58,15.16,0v-15.33
				H244.04z"/>
			<path class="st1" d="M254.47,561.36h-8.92v-1.69h19.74v1.69h-8.92v22.95h-1.9V561.36z"/>
			<path class="st1" d="M267.16,584.31v-24.67h1.87v24.67H267.16z"/>
			<path class="st1" d="M297.26,572.01c-0.04,6.49-4.16,12.72-12.44,12.72c-8.28,0-12.44-6.27-12.44-12.79
				c0-6.63,4.12-12.69,12.44-12.69C293.14,559.25,297.3,565.35,297.26,572.01z M274.24,571.98c0.04,5.57,3.56,11,10.58,11
				c7.05,0,10.61-5.43,10.61-11c0-5.71-3.53-10.96-10.61-10.96C277.73,561.01,274.21,566.16,274.24,571.98z"/>
			<path class="st1" d="M300.85,559.64l16.6,20.41v-20.41h1.87v24.67h-0.74l-16.64-20.37v20.37h-1.9v-24.67H300.85z"/>
			<path class="st1" d="M335.05,567.14h17.62v2.62h-17.62V567.14z"/>
			<path class="st1" d="M378.25,551.54h-12.74v-2.42h28.19v2.42h-12.74v32.78h-2.72V551.54z"/>
			<path class="st1" d="M415.06,584.31h-2.5l-8.53-9.34h-6.73v9.34h-1.9v-24.67c3.63,0,7.23,0,10.86,0c5.36,0,8.07,3.84,8.11,7.68
				c0.04,4.02-2.61,7.54-8,7.54L415.06,584.31z M397.29,573.17h8.74c4.3,0,6.2-2.43,6.24-5.89c0.04-2.89-1.94-5.89-6.03-5.89h-8.95
				V573.17z"/>
			<path class="st1" d="M436.1,584.31l-2.71-6.06h-14.73l-2.68,6.06h-2.04L425,559.64h2.08l11.07,24.67H436.1z M432.65,576.49
				l-6.63-15.02l-6.63,15.02H432.65z"/>
			<path class="st1" d="M439.2,584.31v-24.67h1.87v24.67H439.2z"/>
			<path class="st1" d="M445.58,559.64l16.6,20.41v-20.41h1.87v24.67h-0.74l-16.64-20.37v20.37h-1.9v-24.67H445.58z"/>
			<path class="st1" d="M467.82,584.31v-24.67h1.87v24.67H467.82z"/>
			<path class="st1" d="M474.19,559.64l16.6,20.41v-20.41h1.87v24.67h-0.74l-16.64-20.37v20.37h-1.9v-24.67H474.19z"/>
			<path class="st1" d="M515.82,564.19c-2.15-2.12-5.15-3.17-7.93-3.17c-7.23,0-10.93,5.29-10.89,11c0,5.82,3.7,10.82,10.89,10.82
				c2.64,0,5.39-0.92,7.51-2.85v-6.91h-8.6v-1.66h10.4v9.24c-2.57,2.57-5.64,3.98-9.31,3.98c-8.39,0-12.73-5.85-12.73-12.58
				c-0.04-7.72,5.22-12.76,12.73-12.76c3.24,0,6.52,1.23,9.02,3.7L515.82,564.19z"/>
		</g>
	</g>
</g>
</svg>
